<?xml version="1.0" encoding="utf-8"?>
<svg viewBox="0 0 500 500" xmlns="http://www.w3.org/2000/svg">
  <path fill="#000000" d="M 76.413 113.878 C 91.346 122.019 104.828 132.725 118.131 143.191 C 126.985 150.154 138.277 157.917 152.009 166.481 C 157.042 169.623 162.818 172.249 168.285 175.297 C 171.579 177.13 177.097 180.774 177.446 184.533 C 177.526 185.359 177.394 186.303 177.052 187.364 C 175.16 193.214 173.708 199.389 172.697 205.889 C 171.71 212.235 170.745 218.551 168.623 224.323 C 168.325 225.139 167.912 225.85 167.383 226.458 C 167.173 226.695 166.861 226.814 166.547 226.776 C 164.91 226.568 163.308 226.151 161.741 225.525 C 155.456 223.012 149.244 219.213 143.609 215.348 C 127.508 204.307 112.079 191.502 97.32 176.932 C 90.595 170.297 84.176 163.089 77.75 156.215 C 70.364 148.314 62.722 141.196 54.827 134.86 C 47.246 128.77 39.122 124.205 29.617 122.37 C 28.199 122.095 25.37 121.887 21.132 121.741 C 15.354 121.547 8.815 120.546 3.429 118.638 C 2.27 118.227 1.242 117.657 0.342 116.93 C -0.071 116.598 -0.116 115.991 0.241 115.596 C 0.82 114.954 1.504 114.465 2.295 114.128 C 5.009 112.952 7.923 111.887 11.033 110.93 C 26.214 106.271 42.536 102.649 58.192 106.621 C 64.324 108.177 70.399 110.597 76.413 113.878 Z" style="stroke: rgb(250, 204, 21);"/>
  <path fill="#000000" d="M 327.732 176.608 C 331.052 175.263 334.146 173.92 337.016 172.582 C 339.675 171.343 344.282 168.555 350.837 164.217 C 359.412 158.552 368.604 152.027 377.014 145.383 C 390.548 134.688 403.942 124.877 418.35 115.835 C 428.034 109.754 438.437 106.257 449.559 105.342 C 464.757 104.095 480.559 108.128 495.199 113.444 C 496.806 114.022 498.38 114.556 499.729 115.546 C 500.131 115.841 500.077 116.45 499.627 116.669 C 498.303 117.308 496.982 117.781 495.66 118.093 C 487.819 119.943 477.494 121.92 464.684 124.021 C 456.755 125.323 449.696 128.448 443.505 133.397 C 439.785 136.37 436.645 139.216 434.083 141.934 C 414.328 162.894 394.831 184.5 372.596 202.558 C 364.981 208.741 357.359 213.913 348.368 218.362 C 342.744 221.146 337.063 223.923 331.325 226.693 C 331.225 226.742 331.107 226.688 331.082 226.581 C 327.85 214.487 324.789 202.777 321.897 191.452 C 321.281 189.041 320.952 186.765 320.91 184.621 C 320.82 180.023 323.957 178.138 327.732 176.608 Z" style="stroke: rgb(250, 204, 21);"/>
  <path fill="#000000" d="M 248.997 182.491 C 249.126 183.021 249.274 183.025 249.443 182.504 C 250.971 177.758 252.423 173.552 253.798 169.885 C 254.797 167.231 256.213 165.007 259.142 164.646 C 262.08 164.29 265.06 164.785 268.049 165.197 C 274.913 166.139 281.438 167.574 287.625 169.507 C 295.874 172.082 304.38 176.586 309.56 183.303 C 313.125 187.927 315.63 192.53 317.074 197.112 C 317.837 199.53 318.598 202.809 319.359 206.95 C 320.56 213.506 321.107 220.648 321.903 227.471 C 322.779 234.985 324.106 242.243 325.885 249.244 C 327.255 254.619 328.07 258.503 328.335 260.893 C 330.004 275.864 325.185 289.662 315.291 301.268 C 312.7 304.309 311.4 305.831 311.393 305.84 C 306.613 312.005 302.92 318.081 300.313 324.07 C 297.004 331.67 294.71 339.325 293.435 347.038 C 292.776 351.034 292.117 354.619 291.456 357.793 C 289.055 369.296 284.693 380.264 278.367 390.693 C 276.053 394.508 273.732 398.408 271.401 402.394 C 271.111 402.883 270.947 402.847 270.91 402.282 C 270.179 391.337 269.384 381.245 268.522 372.002 C 268.049 366.949 267.027 362.11 265.459 357.487 C 264.993 356.115 264.288 354.887 263.344 353.8 C 260.998 351.096 258.7 354.667 257.82 356.614 C 257.031 358.371 256.437 360.252 256.039 362.253 C 254.853 368.182 253.964 373.946 253.37 379.549 C 252.471 388.06 251.526 395.418 250.532 401.621 C 250.194 403.712 249.637 405.784 248.863 407.839 C 248.792 408.027 248.606 408.15 248.399 408.144 C 248.156 408.136 247.988 408.018 247.898 407.788 C 247.299 406.254 246.888 404.544 246.662 402.661 C 245.913 396.388 245.316 389.328 244.868 381.483 C 244.563 376.185 243.826 370.956 242.657 365.795 C 241.712 361.64 240.301 358.128 238.42 355.262 C 237.292 353.55 233.985 351.035 232.208 353.36 C 230.957 354.989 230.126 357.131 229.631 359.1 C 227.08 369.277 226.679 380.065 228.553 390.532 C 228.966 392.852 229.251 395.309 229.404 397.901 C 229.456 398.797 229.402 399.715 229.241 400.652 C 229.166 401.109 228.681 401.377 228.249 401.203 C 226.415 400.464 224.581 398.34 223.486 396.722 C 221.012 393.062 218.789 389.171 216.819 385.048 C 211.961 374.882 208.051 364.517 206.094 353.861 C 204.835 346.993 203.633 340.38 201.779 333.408 C 199.366 324.387 195.652 316.623 190.636 310.116 C 187.883 306.55 184.592 302.629 180.763 298.354 C 179.639 297.101 178.243 295.229 176.578 292.738 C 174.23 289.234 172.918 285.298 172.64 280.931 C 172.375 276.848 172.347 272.275 172.549 267.206 C 173.174 251.602 174.565 236.111 176.724 220.736 C 177.735 213.522 178.977 206.38 180.447 199.309 C 181.304 195.188 182.484 191.134 184.911 187.402 C 192.148 176.269 202.636 170.714 215.459 167.749 C 221.021 166.462 226.117 165.481 230.748 164.802 C 234.008 164.323 236.959 164.346 239.599 164.869 C 243.927 165.724 245.742 169.495 246.73 173.395 C 247.531 176.538 248.287 179.57 248.997 182.491 Z M 181.666 256.134 C 180.881 259.048 180.429 261.65 180.313 263.942 C 180.058 268.974 179.946 274.708 181.125 279.513 C 181.835 282.42 182.704 285.126 183.731 287.632 C 184.193 288.762 184.899 289.628 185.446 290.697 C 185.834 291.456 186.291 292.206 186.818 292.944 C 191.455 299.427 199.46 304.328 207.747 303.711 C 210.782 303.484 213.526 302.547 215.977 300.901 C 219.713 298.399 222.77 295.304 225.15 291.619 C 226.46 289.599 227.584 286.971 228.524 283.734 C 229.844 279.185 230.189 275.325 230.432 270.865 C 230.502 269.527 230.478 268.129 230.359 266.673 C 230.227 265.118 230.094 263.658 229.963 262.29 C 228.834 250.484 222.725 238.132 210.343 234.779 C 200.966 232.237 192.198 235.831 187.049 243.989 C 184.6 247.87 182.806 251.918 181.666 256.134 Z M 309.011 239.655 C 305.119 235.762 299.636 233.667 294.125 233.95 C 280.743 234.634 272.843 245.518 270.317 257.552 C 268.337 266.973 268.466 277.261 271.84 286.31 C 274.404 293.186 278.931 298.386 285.419 301.909 C 288.8 303.742 292.441 304.281 296.341 303.521 C 303.81 302.06 309.679 297.892 313.949 291.02 C 315.533 288.468 316.632 286.003 317.247 283.623 C 318.18 280.009 319.075 276.327 319.33 272.59 C 319.573 268.982 319.518 265.575 319.162 262.367 C 318.282 254.493 314.563 245.207 309.011 239.655 Z M 175.913 239.974 C 175.924 239.88 175.852 239.795 175.758 239.787 L 175.746 239.786 C 175.649 239.776 175.565 239.844 175.554 239.94 L 174.116 254.397 C 174.107 254.491 174.177 254.576 174.273 254.585 L 174.284 254.585 C 174.379 254.596 174.466 254.526 174.475 254.431 L 175.913 239.974 Z" style="stroke: rgb(250, 204, 21);"/>
  <path d="M 181.666 256.134 C 182.806 251.918 184.6 247.87 187.049 243.989 C 192.198 235.831 200.966 232.237 210.343 234.779 C 222.725 238.132 228.834 250.484 229.963 262.29 C 230.094 263.658 230.227 265.118 230.359 266.673 C 230.478 268.129 230.502 269.527 230.432 270.865 C 230.189 275.325 229.844 279.185 228.524 283.734 C 227.584 286.971 226.46 289.599 225.15 291.619 C 222.77 295.304 219.713 298.399 215.977 300.901 C 213.526 302.547 210.782 303.484 207.747 303.711 C 199.46 304.328 191.455 299.427 186.818 292.944 C 186.291 292.206 185.834 291.456 185.446 290.697 C 184.899 289.628 184.193 288.762 183.731 287.632 C 182.704 285.126 181.835 282.42 181.125 279.513 C 179.946 274.708 180.058 268.974 180.313 263.942 C 180.429 261.65 180.881 259.048 181.666 256.134 Z M 207.928 236.731 C 205.873 236.375 203.799 236.513 201.998 237.542 C 197.248 240.271 193.706 243.957 191.37 248.599 C 187.607 256.078 186.958 263.547 187.466 271.776 C 187.861 278.128 189.412 285.57 192.741 290.652 C 196.125 295.82 200.64 299.719 206.285 302.348 C 207.312 302.826 208.825 303.332 209.896 303.004 C 216.304 301.046 221.17 297.063 224.492 291.053 C 225.743 288.788 226.584 286.997 227.012 285.68 C 229.135 279.179 229.331 272.456 228.947 265.47 C 228.565 258.392 226.409 251.374 222.205 245.567 C 218.703 240.74 213.879 237.759 207.928 236.731 Z M 205.383 303.343 C 205.456 303.417 205.527 303.421 205.604 303.353 C 205.878 303.117 205.849 302.923 205.519 302.775 C 195.796 298.441 189.476 291.137 186.557 280.864 C 184.907 275.051 184.392 269.198 185.012 263.302 C 185.554 258.197 187.336 253.531 189.418 248.871 C 191.551 244.094 196.244 239.928 200.695 237.242 C 200.744 237.212 200.771 237.169 200.774 237.114 C 200.774 237.066 200.774 237.016 200.774 236.965 C 200.762 236.783 200.667 236.718 200.487 236.77 C 196.532 237.885 193.326 239.882 190.862 242.759 C 189.312 244.565 188.122 246.181 187.291 247.608 C 184.56 252.298 182.8 257.147 182.011 262.157 C 180.646 270.81 181.668 279.36 185.079 287.811 C 186.915 292.355 189.864 296.106 193.925 299.061 C 195.855 300.462 197.823 301.062 199.866 301.903 C 200.847 302.307 201.731 302.576 202.517 302.715 C 203.368 302.862 204.222 303.018 205.084 303.182 C 205.201 303.2 205.3 303.253 205.383 303.343 Z" style="fill: rgb(250, 204, 21);"/>
  <path d="M 294.125 233.95 C 299.636 233.667 305.119 235.762 309.011 239.655 C 314.563 245.207 318.282 254.493 319.162 262.367 C 319.518 265.575 319.573 268.982 319.33 272.59 C 319.075 276.327 318.18 280.009 317.247 283.623 C 316.632 286.003 315.533 288.468 313.949 291.02 C 309.679 297.892 303.81 302.06 296.341 303.521 C 292.441 304.281 288.8 303.742 285.419 301.909 C 278.931 298.386 274.404 293.186 271.84 286.31 C 268.466 277.261 268.337 266.973 270.317 257.552 C 272.843 245.518 280.743 234.634 294.125 233.95 Z M 292.042 236.619 C 286.506 237.461 282.006 239.934 278.542 244.038 C 273.171 250.395 271.316 257.43 270.519 265.771 C 269.959 271.662 270.38 277.478 271.784 283.218 C 272.604 286.572 274.041 289.793 276.094 292.883 C 278.888 297.09 282.539 300.197 287.044 302.204 C 289.183 303.155 291.163 303.256 292.979 302.502 C 297.033 300.827 300.518 298.328 303.432 295.007 C 305.362 292.804 306.886 290.19 308.37 287.699 C 309.358 286.034 310.107 284.051 310.614 281.748 C 311.645 277.067 312.223 272.53 312.352 268.141 C 312.415 265.983 312.188 263.163 311.668 259.682 C 310.248 250.161 305.767 242.153 297.453 237.521 C 295.816 236.609 293.881 236.341 292.042 236.619 Z M 315.426 254.616 C 313.715 249.244 310.854 244.7 306.845 240.986 C 304.762 239.053 302.096 237.699 298.847 236.925 C 298.727 236.898 298.612 236.978 298.597 237.098 C 298.583 237.201 298.624 237.275 298.722 237.321 C 304.854 240.04 309.023 246.074 311.686 252.335 C 316.037 262.585 315.709 274.313 311.731 284.68 C 310.625 287.555 308.917 290.652 306.964 293.032 C 305.889 294.352 304.304 295.949 302.208 297.821 C 301.204 298.718 299.995 299.551 298.581 300.317 C 296.871 301.241 295.24 302.353 293.386 302.875 C 293.295 302.898 293.261 302.954 293.284 303.043 L 293.34 303.332 C 293.358 303.401 293.406 303.433 293.48 303.426 C 298.265 302.937 302.511 301.357 306.219 298.688 C 311.229 295.078 314.444 289.156 316.092 283.161 C 317.35 278.574 318.326 273.897 318.028 269.241 C 317.907 267.403 317.767 265.711 317.604 264.169 C 317.311 261.422 316.584 258.237 315.426 254.616 Z" style="fill: rgb(250, 204, 21);"/>
  <path fill="#000000" d="M 201.998 237.542 C 203.799 236.513 205.873 236.375 207.928 236.731 C 213.879 237.759 218.703 240.74 222.205 245.567 C 226.409 251.374 228.565 258.392 228.947 265.47 C 229.331 272.456 229.135 279.179 227.012 285.68 C 226.584 286.997 225.743 288.788 224.492 291.053 C 221.17 297.063 216.304 301.046 209.896 303.004 C 208.825 303.332 207.312 302.826 206.285 302.348 C 200.64 299.719 196.125 295.82 192.741 290.652 C 189.412 285.57 187.861 278.128 187.466 271.776 C 186.958 263.547 187.607 256.078 191.37 248.599 C 193.706 243.957 197.248 240.271 201.998 237.542 Z M 189.446 259.27 C 189.146 260.805 188.684 262.324 189.858 263.542 C 200.548 274.569 209.507 284.006 220.118 293.917 C 220.401 294.184 220.65 294.157 220.869 293.838 C 224.091 289.172 226.105 285.169 227.323 279.757 C 227.441 279.238 227.321 278.79 226.968 278.413 C 216.783 267.516 206.195 256.892 195.206 246.541 C 195.06 246.403 194.928 246.418 194.811 246.585 C 192.144 250.369 190.356 254.599 189.446 259.27 Z M 190.614 281.899 C 192.194 287.182 194.975 291.486 198.596 295.435 C 201.124 298.183 204.475 299.444 207.814 300.963 C 208.779 301.402 209.902 301.33 210.861 300.901 C 210.995 300.843 211.024 300.666 210.917 300.562 L 191.093 281.616 C 190.571 281.115 190.411 281.209 190.614 281.899 Z" style=""/>
  <path fill="#000000" d="M 292.042 236.619 C 293.881 236.341 295.816 236.609 297.453 237.521 C 305.767 242.153 310.248 250.161 311.668 259.682 C 312.188 263.163 312.415 265.983 312.352 268.141 C 312.223 272.53 311.645 277.067 310.614 281.748 C 310.107 284.051 309.358 286.034 308.37 287.699 C 306.886 290.19 305.362 292.804 303.432 295.007 C 300.518 298.328 297.033 300.827 292.979 302.502 C 291.163 303.256 289.183 303.155 287.044 302.204 C 282.539 300.197 278.888 297.09 276.094 292.883 C 274.041 289.793 272.604 286.572 271.784 283.218 C 270.38 277.478 269.959 271.662 270.519 265.771 C 271.316 257.43 273.171 250.395 278.542 244.038 C 282.006 239.934 286.506 237.461 292.042 236.619 Z M 272.314 280.247 C 273.465 285.353 275.648 290.08 278.931 294.228 C 279.055 294.385 279.292 294.39 279.422 294.239 C 280.457 293.004 281.599 291.78 282.846 290.569 C 293.581 280.113 302.639 270.95 310.022 263.08 C 310.484 262.587 310.657 261.989 310.541 261.29 C 309.623 255.784 307.709 250.914 304.798 246.679 C 304.683 246.51 304.439 246.484 304.284 246.624 C 293.765 256.345 283.232 266.9 272.686 278.289 C 272.139 278.88 272.151 279.513 272.314 280.247 Z M 292.821 300.651 C 299.444 298.065 304.335 292.66 307.128 286.292 C 307.786 284.797 308.461 283.218 309.154 281.547 C 309.191 281.458 309.166 281.353 309.09 281.292 C 308.972 281.192 308.871 281.181 308.792 281.258 C 302.267 287.551 295.561 293.942 288.675 300.434 C 288.484 300.617 288.566 300.933 288.819 301.004 C 288.824 301.005 288.829 301.006 288.833 301.007 C 290.111 301.31 291.44 301.193 292.821 300.651 Z" style=""/>
  <path fill="#3d3c3b" d="M 205.084 303.182 C 204.222 303.018 203.368 302.862 202.517 302.715 C 201.731 302.576 200.847 302.307 199.866 301.903 C 197.823 301.062 195.855 300.462 193.925 299.061 C 189.864 296.106 186.915 292.355 185.079 287.811 C 181.668 279.36 180.646 270.81 182.011 262.157 C 182.8 257.147 184.56 252.298 187.291 247.608 C 188.122 246.181 189.312 244.565 190.862 242.759 C 193.326 239.882 196.532 237.885 200.487 236.77 C 200.667 236.718 200.762 236.783 200.774 236.965 C 200.774 237.016 200.774 237.066 200.774 237.114 C 200.771 237.169 200.744 237.212 200.695 237.242 C 196.244 239.928 191.551 244.094 189.418 248.871 C 187.336 253.531 185.554 258.197 185.012 263.302 C 184.392 269.198 184.907 275.051 186.557 280.864 C 189.476 291.137 195.796 298.441 205.519 302.775 C 205.849 302.923 205.878 303.117 205.604 303.353 C 205.527 303.421 205.456 303.417 205.383 303.343 C 205.3 303.253 205.201 303.2 205.084 303.182 Z" style=""/>
  <path fill="#3d3c3b" d="M 315.426 254.616 C 316.584 258.237 317.311 261.422 317.604 264.169 C 317.767 265.711 317.907 267.403 318.028 269.241 C 318.326 273.897 317.35 278.574 316.092 283.161 C 314.444 289.156 311.229 295.078 306.219 298.688 C 302.511 301.357 298.265 302.937 293.48 303.426 C 293.406 303.433 293.358 303.401 293.34 303.332 L 293.284 303.043 C 293.261 302.954 293.295 302.898 293.386 302.875 C 295.24 302.353 296.871 301.241 298.581 300.317 C 299.995 299.551 301.204 298.718 302.208 297.821 C 304.304 295.949 305.889 294.352 306.964 293.032 C 308.917 290.652 310.625 287.555 311.731 284.68 C 315.709 274.313 316.037 262.585 311.686 252.335 C 309.023 246.074 304.854 240.04 298.722 237.321 C 298.624 237.275 298.583 237.201 298.597 237.098 C 298.612 236.978 298.727 236.898 298.847 236.925 C 302.096 237.699 304.762 239.053 306.845 240.986 C 310.854 244.7 313.715 249.244 315.426 254.616 Z" style=""/>
  <path fill="#ffffff" d="M 189.446 259.27 C 190.356 254.599 192.144 250.369 194.811 246.585 C 194.928 246.418 195.06 246.403 195.206 246.541 C 206.195 256.892 216.783 267.516 226.968 278.413 C 227.321 278.79 227.441 279.238 227.323 279.757 C 226.105 285.169 224.091 289.172 220.869 293.838 C 220.65 294.157 220.401 294.184 220.118 293.917 C 209.507 284.006 200.548 274.569 189.858 263.542 C 188.684 262.324 189.146 260.805 189.446 259.27 Z" style=""/>
  <path fill="#ffffff" d="M 278.931 294.228 C 275.648 290.08 273.465 285.353 272.314 280.247 C 272.151 279.513 272.139 278.88 272.686 278.289 C 283.232 266.9 293.765 256.345 304.284 246.624 C 304.439 246.484 304.683 246.51 304.798 246.679 C 307.709 250.914 309.623 255.784 310.541 261.29 C 310.657 261.989 310.484 262.587 310.022 263.08 C 302.639 270.95 293.581 280.113 282.846 290.569 C 281.599 291.78 280.457 293.004 279.422 294.239 C 279.292 294.39 279.055 294.385 278.931 294.228 Z" style=""/>
  <path fill="#ffffff" d="M 292.821 300.651 C 291.44 301.193 290.111 301.31 288.833 301.007 C 288.574 300.945 288.482 300.632 288.665 300.443 C 288.669 300.439 288.671 300.437 288.675 300.434 C 295.561 293.942 302.267 287.551 308.792 281.258 C 308.871 281.181 308.972 281.192 309.09 281.292 C 309.166 281.353 309.191 281.458 309.154 281.547 C 308.461 283.218 307.786 284.797 307.128 286.292 C 304.335 292.66 299.444 298.065 292.821 300.651 Z" style=""/>
  <path fill="#ffffff" d="M 198.596 295.435 C 194.975 291.486 192.194 287.182 190.614 281.899 C 190.411 281.209 190.571 281.115 191.093 281.616 L 210.917 300.562 C 211.024 300.666 210.995 300.843 210.861 300.901 C 209.902 301.33 208.779 301.402 207.814 300.963 C 204.475 299.444 201.124 298.183 198.596 295.435 Z" style=""/>
</svg>